<?xml version="1.0" standalone="no"?>
<!DOCTYPE svg PUBLIC "-//W3C//DTD SVG 20010904//EN"
 "http://www.w3.org/TR/2001/REC-SVG-20010904/DTD/svg10.dtd">
<svg version="1.0" xmlns="http://www.w3.org/2000/svg"
 width="225.000000pt" height="225.000000pt" viewBox="0 0 225.000000 225.000000"
 preserveAspectRatio="xMidYMid meet">
<metadata>
Created by potrace 1.14, written by Peter Selinger 2001-2017
</metadata>
<g transform="translate(0.000000,225.000000) scale(0.100000,-0.100000)"
fill="#000000" stroke="none">
<path d="M1003 1535 c-122 -33 -194 -83 -229 -158 -59 -127 -11 -232 141 -310
28 -14 43 -26 35 -27 -27 0 -136 -57 -174 -90 -52 -46 -76 -98 -76 -165 0
-129 96 -227 275 -281 80 -24 258 -25 335 -1 75 22 160 75 187 116 63 93 23
191 -77 191 -43 0 -81 -41 -109 -114 -31 -83 -54 -112 -106 -132 -93 -35 -199
-1 -250 81 -55 88 -45 254 18 313 46 43 92 54 220 50 105 -3 121 -1 131 14 8
13 8 23 0 35 -10 16 -28 18 -140 18 -112 0 -134 3 -164 21 -72 42 -103 130
-82 233 21 98 89 155 187 155 67 0 111 -25 143 -82 37 -64 95 -122 122 -122
31 0 76 29 89 57 37 81 -34 161 -174 197 -73 20 -231 20 -302 1z"/>
</g>
</svg>
