<?xml version="1.0" encoding="utf-8" ?>
<svg baseProfile="full" class="WaveDrom" height="165" version="1.1" viewBox="0,0,809,165" width="809" xmlns="http://www.w3.org/2000/svg" xmlns:ev="http://www.w3.org/2001/xml-events" xmlns:xlink="http://www.w3.org/1999/xlink"><defs /><g font-family="sans-serif" font-size="10" font-weight="normal" text-anchor="middle" transform="translate(4.5,80.5)"><g stroke="black" stroke-linecap="round" stroke-width="1" transform="translate(0,20.0)"><line x1="0" x2="800" y1="0" y2="0" /><line x1="0" x2="0" y1="0" y2="40.0" /><line x1="0" x2="800" y1="40.0" y2="40.0" /><line x1="800.0" x2="800.0" y1="0" y2="40.0" /><line x1="750.0" x2="750.0" y1="0" y2="5.0" /><line x1="750.0" x2="750.0" y1="35.0" y2="40.0" /><line x1="700.0" x2="700.0" y1="0" y2="5.0" /><line x1="700.0" x2="700.0" y1="35.0" y2="40.0" /><line x1="650.0" x2="650.0" y1="0" y2="5.0" /><line x1="650.0" x2="650.0" y1="35.0" y2="40.0" /><line x1="600.0" x2="600.0" y1="0" y2="40.0" /><line x1="550.0" x2="550.0" y1="0" y2="5.0" /><line x1="550.0" x2="550.0" y1="35.0" y2="40.0" /><line x1="500.0" x2="500.0" y1="0" y2="5.0" /><line x1="500.0" x2="500.0" y1="35.0" y2="40.0" /><line x1="450.0" x2="450.0" y1="0" y2="5.0" /><line x1="450.0" x2="450.0" y1="35.0" y2="40.0" /><line x1="400.0" x2="400.0" y1="0" y2="5.0" /><line x1="400.0" x2="400.0" y1="35.0" y2="40.0" /><line x1="350.0" x2="350.0" y1="0" y2="5.0" /><line x1="350.0" x2="350.0" y1="35.0" y2="40.0" /><line x1="300.0" x2="300.0" y1="0" y2="5.0" /><line x1="300.0" x2="300.0" y1="35.0" y2="40.0" /><line x1="250.0" x2="250.0" y1="0" y2="5.0" /><line x1="250.0" x2="250.0" y1="35.0" y2="40.0" /><line x1="200.0" x2="200.0" y1="0" y2="5.0" /><line x1="200.0" x2="200.0" y1="35.0" y2="40.0" /><line x1="150.0" x2="150.0" y1="0" y2="5.0" /><line x1="150.0" x2="150.0" y1="35.0" y2="40.0" /><line x1="100.0" x2="100.0" y1="0" y2="5.0" /><line x1="100.0" x2="100.0" y1="35.0" y2="40.0" /><line x1="50.0" x2="50.0" y1="0" y2="5.0" /><line x1="50.0" x2="50.0" y1="35.0" y2="40.0" /></g><g text-anchor="middle"><g><g transform="translate(0,20.0)"><rect height="40.0" style="fill-opacity:0.1" width="600.0" x="0.0" y="0" /></g><g transform="translate(25.0,16.0)"><text x="750.0"><tspan>0</tspan></text><text x="600.0"><tspan>3</tspan></text><text x="550.0"><tspan>4</tspan></text><text x="0.0"><tspan>15</tspan></text></g><g transform="translate(25.0,44.0)"><text x="675.0"><tspan>VALUE</tspan></text></g><g transform="translate(25.0,80)"><text x="675.0"><tspan>rw</tspan></text></g></g></g></g><g font-family="sans-serif" font-size="10" font-weight="normal" text-anchor="middle" transform="translate(4.5,0.5)"><g stroke="black" stroke-linecap="round" stroke-width="1" transform="translate(0,20.0)"><line x1="0" x2="800" y1="0" y2="0" /><line x1="0" x2="0" y1="0" y2="40.0" /><line x1="0" x2="800" y1="40.0" y2="40.0" /><line x1="800.0" x2="800.0" y1="0" y2="40.0" /><line x1="750.0" x2="750.0" y1="0" y2="5.0" /><line x1="750.0" x2="750.0" y1="35.0" y2="40.0" /><line x1="700.0" x2="700.0" y1="0" y2="5.0" /><line x1="700.0" x2="700.0" y1="35.0" y2="40.0" /><line x1="650.0" x2="650.0" y1="0" y2="5.0" /><line x1="650.0" x2="650.0" y1="35.0" y2="40.0" /><line x1="600.0" x2="600.0" y1="0" y2="5.0" /><line x1="600.0" x2="600.0" y1="35.0" y2="40.0" /><line x1="550.0" x2="550.0" y1="0" y2="5.0" /><line x1="550.0" x2="550.0" y1="35.0" y2="40.0" /><line x1="500.0" x2="500.0" y1="0" y2="5.0" /><line x1="500.0" x2="500.0" y1="35.0" y2="40.0" /><line x1="450.0" x2="450.0" y1="0" y2="5.0" /><line x1="450.0" x2="450.0" y1="35.0" y2="40.0" /><line x1="400.0" x2="400.0" y1="0" y2="5.0" /><line x1="400.0" x2="400.0" y1="35.0" y2="40.0" /><line x1="350.0" x2="350.0" y1="0" y2="5.0" /><line x1="350.0" x2="350.0" y1="35.0" y2="40.0" /><line x1="300.0" x2="300.0" y1="0" y2="5.0" /><line x1="300.0" x2="300.0" y1="35.0" y2="40.0" /><line x1="250.0" x2="250.0" y1="0" y2="5.0" /><line x1="250.0" x2="250.0" y1="35.0" y2="40.0" /><line x1="200.0" x2="200.0" y1="0" y2="5.0" /><line x1="200.0" x2="200.0" y1="35.0" y2="40.0" /><line x1="150.0" x2="150.0" y1="0" y2="5.0" /><line x1="150.0" x2="150.0" y1="35.0" y2="40.0" /><line x1="100.0" x2="100.0" y1="0" y2="5.0" /><line x1="100.0" x2="100.0" y1="35.0" y2="40.0" /><line x1="50.0" x2="50.0" y1="0" y2="5.0" /><line x1="50.0" x2="50.0" y1="35.0" y2="40.0" /></g><g text-anchor="middle"><g><g transform="translate(0,20.0)"><rect height="40.0" style="fill-opacity:0.1" width="800.0" x="0.0" y="0" /></g><g transform="translate(25.0,16.0)"><text x="750.0"><tspan>16</tspan></text><text x="0.0"><tspan>31</tspan></text></g><g transform="translate(25.0,44.0)" /><g transform="translate(25.0,80)" /></g></g></g></svg>